<?xml version="1.0" standalone="no"?>
<!DOCTYPE svg PUBLIC "-//W3C//DTD SVG 20010904//EN"
 "http://www.w3.org/TR/2001/REC-SVG-20010904/DTD/svg10.dtd">
<svg version="1.0" xmlns="http://www.w3.org/2000/svg"
 width="350.000000pt" height="350.000000pt" viewBox="0 0 350.000000 350.000000"
 preserveAspectRatio="xMidYMid meet">
<metadata>
Created by potrace 1.11, written by Peter Selinger 2001-2013
</metadata>
<g transform="translate(0.000000,350.000000) scale(0.100000,-0.100000)"
fill="#000000" stroke="none">
<path d="M1697 3204 c-1 -1 -37 -4 -79 -8 -333 -28 -655 -222 -850 -511 -91
-136 -153 -286 -182 -444 -17 -96 -18 -304 0 -402 65 -365 290 -672 614 -838
98 -50 187 -84 253 -96 20 -4 37 -10 37 -13 0 -4 -15 -36 -32 -72 -18 -36 -33
-66 -34 -68 0 -1 -21 5 -45 14 -77 27 -222 54 -296 54 -181 0 -269 -85 -266
-260 0 -79 15 -123 57 -168 78 -86 258 -76 401 22 60 42 170 154 187 192 13
28 19 29 78 8 138 -49 245 -62 330 -40 30 8 105 42 166 75 233 128 371 143
459 51 43 -45 95 -36 95 17 0 28 -54 83 -106 108 -55 27 -178 32 -257 11 -34
-9 -135 -53 -224 -98 -142 -71 -168 -80 -215 -80 -79 0 -268 52 -268 74 0 15
37 81 62 110 23 27 25 27 158 29 195 4 352 40 514 121 439 217 693 681 641
1169 -55 511 -442 929 -950 1024 -43 8 -243 24 -248 19z m-18 -137 c-56 -196
-69 -460 -33 -717 8 -61 59 -275 78 -327 l15 -41 -38 -25 c-21 -14 -68 -50
-104 -82 l-67 -57 -24 54 c-128 290 -175 705 -111 983 18 77 51 183 63 202 7
12 128 36 197 40 33 2 33 1 24 -30z m273 12 c27 -6 46 -14 44 -18 -11 -17 -18
-107 -21 -251 -4 -182 13 -333 55 -500 16 -64 30 -122 32 -129 3 -14 -228
-138 -238 -128 -13 13 -64 235 -80 344 -22 157 -21 376 1 493 3 14 7 39 10 55
3 17 13 58 22 92 l16 63 56 -5 c31 -3 77 -10 103 -16z m237 -82 l84 -42 3
-120 c1 -66 5 -145 9 -175 8 -73 50 -282 69 -345 9 -27 14 -51 12 -52 -3 -3
-127 -39 -185 -54 -10 -3 -20 10 -29 36 -22 66 -61 258 -69 342 -9 97 -10 299
-1 373 4 30 7 61 8 68 0 17 6 16 99 -31z m-881 -69 l-22 -86 -86 -32 c-91 -35
-238 -106 -303 -147 l-40 -25 23 33 c44 61 142 159 215 214 67 50 224 139 232
132 1 -2 -7 -42 -19 -89z m1137 -98 c79 -68 190 -214 239 -315 39 -79 90 -215
84 -220 -2 -1 -69 -5 -150 -8 l-147 -6 -16 57 c-32 110 -58 244 -70 357 -12
118 -13 186 -2 182 5 -1 33 -23 62 -47z m-1180 -182 c-2 -46 -4 -96 -4 -113
-1 -28 -6 -32 -80 -58 -138 -49 -287 -127 -473 -251 l-27 -18 25 93 c13 51 30
104 37 118 18 39 174 141 332 219 115 57 175 86 192 91 1 1 0 -36 -2 -81z m5
-255 c0 -5 3 -31 6 -58 l6 -50 -49 -24 c-141 -68 -333 -213 -513 -387 -28 -27
-36 -30 -37 -16 -1 9 -4 60 -8 113 l-8 97 59 43 c138 102 297 192 449 255 85
36 95 38 95 27z m1520 -225 c9 -23 9 -283 0 -291 -3 -3 -61 -7 -130 -11 -69
-3 -138 -8 -155 -11 -337 -61 -550 -154 -820 -358 -86 -66 -279 -253 -365
-354 l-52 -62 -47 23 c-25 13 -57 33 -71 44 l-25 20 78 115 c262 385 591 665
950 806 150 59 344 96 525 100 98 2 103 1 112 -21z m-1482 7 c-3 -3 3 -36 14
-73 l18 -67 -22 -15 c-148 -98 -333 -265 -451 -408 -33 -40 -65 -71 -70 -69
-10 3 -76 153 -77 173 0 10 149 162 220 224 87 75 337 240 363 240 6 0 8 -2 5
-5z m102 -336 c19 -50 33 -94 32 -98 -2 -3 -36 -41 -75 -85 -94 -103 -212
-255 -272 -350 -27 -42 -51 -76 -55 -76 -14 0 -180 185 -180 201 0 17 131 171
226 266 85 85 266 233 284 233 3 0 21 -41 40 -91z m1339 -74 c18 -5 18 -8 -5
-73 -27 -75 -86 -195 -112 -229 -12 -16 -32 -24 -72 -28 -161 -18 -357 -78
-519 -159 -123 -61 -203 -112 -346 -220 -86 -65 -104 -75 -132 -71 -46 6 -193
46 -193 52 0 10 112 134 190 213 288 287 644 470 985 506 33 4 61 7 62 8 6 5
127 6 142 1z m-280 -499 c-111 -106 -268 -200 -409 -244 -59 -19 -78 -24 -147
-36 -12 -3 -53 -8 -90 -11 l-68 -6 30 25 c118 100 344 224 502 275 86 27 209
59 238 60 6 0 -20 -28 -56 -63z m-1274 -551 c90 -19 185 -49 185 -59 0 -18
-91 -113 -149 -156 -120 -88 -266 -97 -306 -19 -17 32 -20 125 -6 162 13 34
49 66 86 76 32 9 140 7 190 -4z"/>
</g>
</svg>
